<svg width="33" height="33" viewBox="0 0 33 33" fill="none" xmlns="http://www.w3.org/2000/svg">
<path fill-rule="evenodd" clip-rule="evenodd" d="M17.5 9.5C17.5 9.5 19.5711 9.5 21.0355 10.9645C21.0355 10.9645 22.5 12.4289 22.5 14.5C22.5 14.5 22.5 16.5711 21.0355 18.0355C21.0355 18.0355 19.5711 19.5 17.5 19.5C17.5 19.5 15.4289 19.5 13.9645 18.0355C13.9645 18.0355 12.5 16.5711 12.5 14.5C12.5 14.5 12.5 12.4289 13.9645 10.9645C13.9645 10.9645 15.4289 9.5 17.5 9.5ZM17.5 11.5C17.5 11.5 16.2574 11.5 15.3787 12.3787C15.3787 12.3787 14.5 13.2574 14.5 14.5C14.5 14.5 14.5 15.7426 15.3787 16.6213C15.3787 16.6213 16.2574 17.5 17.5 17.5C17.5 17.5 18.7426 17.5 19.6213 16.6213C19.6213 16.6213 20.5 15.7426 20.5 14.5C20.5 14.5 20.5 13.2574 19.6213 12.3787C19.6213 12.3787 18.7426 11.5 17.5 11.5Z" fill="#1C1C1C"/>
<path fill-rule="evenodd" clip-rule="evenodd" d="M8.5 4.5H26.5C26.7652 4.5 27.0196 4.60535 27.2071 4.79291C27.3947 4.98044 27.5 5.23477 27.5 5.5V27.5C27.5 27.7652 27.3947 28.0196 27.2071 28.2071C27.0196 28.3947 26.7652 28.5 26.5 28.5H8.5C8.2348 28.5 7.98041 28.3947 7.79291 28.2071C7.60535 28.0196 7.5 27.7652 7.5 27.5V5.5C7.5 5.23477 7.60535 4.98044 7.79291 4.79291C7.98041 4.60535 8.2348 4.5 8.5 4.5ZM15.2777 17.8259C15.9355 18.2654 16.7089 18.5 17.5 18.5C18.5609 18.5 19.5783 18.0786 20.3284 17.3284C21.0786 16.5783 21.5 15.5609 21.5 14.5C21.5 13.7089 21.2654 12.9355 20.8259 12.2777C20.3864 11.6199 19.7617 11.1072 19.0308 10.8045C18.2998 10.5017 17.4955 10.4225 16.7197 10.5768C15.9437 10.7312 15.231 11.1122 14.6716 11.6716C14.1122 12.231 13.7312 12.9437 13.5768 13.7196C13.4225 14.4956 13.5017 15.2998 13.8045 16.0307C14.1072 16.7616 14.6199 17.3864 15.2777 17.8259Z" fill="black" fill-opacity="0.1"/>
<path d="M4.5 15H7.5C8.05228 15 8.5 14.5523 8.5 14C8.5 13.4477 8.05228 13 7.5 13H4.5C3.94772 13 3.5 13.4477 3.5 14C3.5 14.5523 3.94772 15 4.5 15Z" fill="#1C1C1C"/>
<path d="M4.5 10H7.5C8.05228 10 8.5 9.55228 8.5 9C8.5 8.44772 8.05228 8 7.5 8H4.5C3.94772 8 3.5 8.44772 3.5 9C3.5 9.55228 3.94772 10 4.5 10Z" fill="#1C1C1C"/>
<path d="M4.5 20H7.5C8.05228 20 8.5 19.5523 8.5 19C8.5 18.4477 8.05228 18 7.5 18H4.5C3.94772 18 3.5 18.4477 3.5 19C3.5 19.5523 3.94772 20 4.5 20Z" fill="#1C1C1C"/>
<path d="M4.5 25H7.5C8.05228 25 8.5 24.5523 8.5 24C8.5 23.4477 8.05228 23 7.5 23H4.5C3.94772 23 3.5 23.4477 3.5 24C3.5 24.5523 3.94772 25 4.5 25Z" fill="#1C1C1C"/>
<path d="M20.4069 20.1862C21.7793 20.8724 22.7 22.1 22.7 22.1C22.8591 22.3122 23.096 22.4524 23.3586 22.4899C23.4054 22.4966 23.4527 22.5 23.5 22.5L23.5034 22.5C23.7186 22.4993 23.9278 22.4291 24.1 22.3C24.3518 22.1111 24.5 21.8148 24.5 21.5L24.4999 21.4869C24.4971 21.275 24.4271 21.0695 24.3 20.9C23.0961 19.2947 21.3013 18.3974 21.3013 18.3974C19.5066 17.5 17.5 17.5 17.5 17.5C15.4934 17.5 13.6987 18.3974 13.6987 18.3974C11.9039 19.2947 10.7 20.9 10.7 20.9C10.5702 21.0731 10.5 21.2836 10.5 21.5L10.5 21.5088C10.5004 21.5532 10.5038 21.5975 10.5101 21.6414C10.5476 21.904 10.6878 22.1409 10.9 22.3C11.0731 22.4298 11.2836 22.5 11.5 22.5L11.5088 22.5C11.5532 22.4996 11.5975 22.4962 11.6414 22.4899C11.904 22.4524 12.1409 22.3122 12.3 22.1C13.2207 20.8724 14.5931 20.1862 14.5931 20.1862C15.9656 19.5 17.5 19.5 17.5 19.5C19.0344 19.5 20.4069 20.1862 20.4069 20.1862Z" fill="#1C1C1C"/>
<path fill-rule="evenodd" clip-rule="evenodd" d="M26.5 3.5C26.5 3.5 27.3284 3.5 27.9142 4.08579C27.9142 4.08579 28.5 4.67157 28.5 5.5V27.5C28.5 27.5 28.5 28.3284 27.9142 28.9142C27.9142 28.9142 27.3284 29.5 26.5 29.5H8.5C8.5 29.5 7.67157 29.5 7.08578 28.9142C7.08578 28.9142 6.5 28.3284 6.5 27.5V5.5C6.5 5.5 6.5 4.67157 7.08578 4.08579C7.08578 4.08579 7.67157 3.5 8.5 3.5L26.5 3.5ZM26.5 5.5L8.5 5.5V27.5H26.5V5.5Z" fill="#1C1C1C"/>
</svg>
