<svg width="33" height="33" viewBox="0 0 33 33" fill="none" xmlns="http://www.w3.org/2000/svg">
<path d="M20.5 16.5C20.5 18.7091 18.7091 20.5 16.5 20.5C14.2909 20.5 12.5 18.7091 12.5 16.5C12.5 14.2909 14.2909 12.5 16.5 12.5C18.7091 12.5 20.5 14.2909 20.5 16.5Z" fill="black" fill-opacity="0.1"/>
<path fill-rule="evenodd" clip-rule="evenodd" d="M16.5 11.5C16.5 11.5 18.5711 11.5 20.0355 12.9645C20.0355 12.9645 21.5 14.4289 21.5 16.5C21.5 16.5 21.5 18.5711 20.0355 20.0355C20.0355 20.0355 18.5711 21.5 16.5 21.5C16.5 21.5 14.4289 21.5 12.9645 20.0355C12.9645 20.0355 11.5 18.5711 11.5 16.5C11.5 16.5 11.5 14.4289 12.9645 12.9645C12.9645 12.9645 14.4289 11.5 16.5 11.5ZM16.5 13.5C16.5 13.5 15.2574 13.5 14.3787 14.3787C14.3787 14.3787 13.5 15.2574 13.5 16.5C13.5 16.5 13.5 17.7426 14.3787 18.6213C14.3787 18.6213 15.2574 19.5 16.5 19.5C16.5 19.5 17.7426 19.5 18.6213 18.6213C18.6213 18.6213 19.5 17.7426 19.5 16.5C19.5 16.5 19.5 15.2574 18.6213 14.3787C18.6213 14.3787 17.7426 13.5 16.5 13.5Z" fill="#1C1C1C"/>
<path d="M10.8445 10.845L10.8448 10.8446C11.0324 10.6571 11.1377 10.4027 11.1377 10.1375C11.1377 9.87249 11.0325 9.6183 10.8452 9.4308L10.8448 9.43041C10.6573 9.24287 10.403 9.13751 10.1377 9.13751C9.87271 9.13751 9.61852 9.24272 9.43102 9.43002C8.04848 10.811 7.29094 12.6123 7.29094 12.6123C6.5 14.4738 6.5 16.5 6.5 16.5C6.5 18.5262 7.29237 20.3911 7.29237 20.3911C8.04848 22.189 9.43102 23.57 9.43102 23.57C9.61852 23.7573 9.87271 23.8625 10.1377 23.8625H10.1383C10.4035 23.8624 10.6578 23.7569 10.8452 23.5692C11.0325 23.3817 11.1377 23.1275 11.1377 22.8625L11.1377 22.862C11.1376 22.5967 11.0321 22.3424 10.8445 22.155C9.73981 21.0516 9.1331 19.609 9.1331 19.609C8.5 18.1189 8.5 16.5 8.5 16.5C8.5 14.8811 9.13454 13.3877 9.13454 13.3877C9.73981 11.9484 10.8445 10.845 10.8445 10.845Z" fill="#1C1C1C"/>
<path d="M23.5694 9.43041C24.9517 10.8113 25.7077 12.609 25.7077 12.609C26.5 14.4738 26.5 16.5 26.5 16.5C26.5 18.5262 25.7091 20.3877 25.7091 20.3877C24.9516 22.189 23.569 23.57 23.569 23.57C23.394 23.7448 23.1605 23.8485 22.9135 23.8612C22.8964 23.8621 22.8794 23.8625 22.8623 23.8625C22.5969 23.8625 22.3424 23.757 22.1548 23.5692C21.9791 23.3933 21.8752 23.1583 21.8634 22.91C21.8627 22.8942 21.8623 22.8783 21.8623 22.8625L21.8623 22.862C21.8625 22.5967 21.9679 22.3424 22.1556 22.155C23.2602 21.0516 23.8655 19.6123 23.8655 19.6123C24.5 18.1189 24.5 16.5 24.5 16.5C24.5 14.8811 23.8669 13.3911 23.8669 13.3911C23.2602 11.9484 22.1556 10.845 22.1556 10.845C21.9678 10.6574 21.8623 10.4029 21.8623 10.1375C21.8623 9.87454 21.9659 9.62215 22.1506 9.435L22.1548 9.4308C22.3204 9.26499 22.539 9.16262 22.7725 9.14156C22.8021 9.13888 22.8319 9.13753 22.8618 9.13751L22.8623 9.13751C23.123 9.13751 23.3735 9.23935 23.5602 9.42131L23.5691 9.43012L23.5694 9.43041Z" fill="#1C1C1C"/>
<path d="M7.3072 7.30708L7.30785 7.30643L7.31177 7.30249C7.49651 7.11534 7.6001 6.86295 7.6001 6.59998C7.6001 6.33444 7.49449 6.07981 7.30656 5.89222L7.29799 5.88378C7.11125 5.70181 6.86083 5.59998 6.6001 5.59998L6.59918 5.59998C6.56949 5.6 6.53981 5.60135 6.51024 5.60402C6.2767 5.62509 6.058 5.72756 5.89234 5.89352L5.89185 5.89401C3.82445 7.9654 2.67976 10.6588 2.67976 10.6588C1.5 13.4621 1.5 16.5 1.5 16.5C1.5 19.5379 2.6784 22.3379 2.6784 22.3379C3.82458 25.0349 5.89234 27.1064 5.89234 27.1064C6.0797 27.2941 6.33396 27.3997 6.59918 27.4H6.6001C6.61581 27.4 6.63152 27.3996 6.64721 27.3989C6.89554 27.3871 7.1306 27.2834 7.30655 27.1077C7.49448 26.9201 7.60009 26.6655 7.6001 26.4C7.6001 26.383 7.59967 26.3661 7.5988 26.3491C7.58623 26.1021 7.48258 25.8686 7.30785 25.6935C5.51375 23.8961 4.5218 21.5621 4.5218 21.5621C3.5 19.1342 3.5 16.5 3.5 16.5C3.5 13.8658 4.52043 11.4411 4.52043 11.4411C5.51357 9.10427 7.3072 7.30708 7.3072 7.30708Z" fill="#1C1C1C"/>
<path d="M27.1083 5.89413L27.1077 5.89352L27.107 5.89287C26.9197 5.70556 26.6657 5.60022 26.4008 5.59998L26.3999 5.59998C26.135 5.59998 25.8809 5.70508 25.6934 5.89222L25.6928 5.89287C25.5053 6.08041 25.3999 6.33476 25.3999 6.59998C25.3999 6.86487 25.505 7.11895 25.6921 7.30643C27.4863 9.10384 28.4782 11.4379 28.4782 11.4379C29.5 13.8658 29.5 16.5 29.5 16.5C29.5 19.1341 28.4796 21.5588 28.4796 21.5588C27.4863 23.8961 25.6921 25.6935 25.6921 25.6935C25.505 25.881 25.3999 26.1351 25.3999 26.4L25.3999 26.4009C25.4001 26.6661 25.5057 26.9204 25.6934 27.1077C25.8809 27.2949 26.135 27.4 26.3999 27.4L26.4008 27.4C26.666 27.3997 26.9203 27.2941 27.1077 27.1064C29.1754 25.0349 30.3202 22.3411 30.3202 22.3411C31.5 19.5379 31.5 16.5 31.5 16.5C31.5 13.4621 30.3216 10.6621 30.3216 10.6621C29.1756 7.96548 27.1083 5.89413 27.1083 5.89413Z" fill="#1C1C1C"/>
</svg>
