<svg width="33" height="33" viewBox="0 0 33 33" fill="none" xmlns="http://www.w3.org/2000/svg">
<path fill-rule="evenodd" clip-rule="evenodd" d="M9.83311 6.52234C11.8065 5.20374 14.1266 4.5 16.5 4.5C19.6826 4.5 22.7348 5.76428 24.9852 8.01477C27.2357 10.2651 28.5 13.3174 28.5 16.5C28.5 18.8734 27.7962 21.1935 26.4776 23.1669C25.159 25.1403 23.2849 26.6783 21.0921 27.5865C18.8995 28.4948 16.4867 28.7324 14.1589 28.2694C11.8312 27.8064 9.69297 26.6635 8.01475 24.9852C6.33653 23.307 5.19358 21.1688 4.73057 18.8411C4.26756 16.5133 4.50523 14.1005 5.41343 11.9078C6.32163 9.71509 7.85972 7.84094 9.83311 6.52234ZM11.1999 21.8L18.625 18.625L22.1374 10.85L14.375 14.375L11.1999 21.8Z" fill="black" fill-opacity="0.1"/>
<path fill-rule="evenodd" clip-rule="evenodd" d="M16.5 3.5C16.5 3.5 19.1442 3.5 21.5605 4.52201C21.5605 4.52201 23.8936 5.50884 25.6924 7.30761C25.6924 7.30761 27.4912 9.10638 28.478 11.4395C28.478 11.4395 29.5 13.8558 29.5 16.5C29.5 16.5 29.5 19.1442 28.478 21.5605C28.478 21.5605 27.4912 23.8936 25.6924 25.6924C25.6924 25.6924 23.8936 27.4912 21.5605 28.478C21.5605 28.478 19.1442 29.5 16.5 29.5C16.5 29.5 13.8558 29.5 11.4395 28.478C11.4395 28.478 9.10638 27.4912 7.30761 25.6924C7.30761 25.6924 5.50884 23.8936 4.52202 21.5605C4.52202 21.5605 3.5 19.1442 3.5 16.5C3.5 16.5 3.5 13.8558 4.52202 11.4395C4.52202 11.4395 5.50885 9.10638 7.30761 7.30761C7.30761 7.30761 9.10638 5.50884 11.4395 4.52201C11.4395 4.52201 13.8558 3.5 16.5 3.5ZM16.5 5.5C16.5 5.5 14.2614 5.5 12.2186 6.36402C12.2186 6.36402 10.2448 7.19889 8.72183 8.72182C8.72183 8.72182 7.1989 10.2448 6.36402 12.2186C6.36402 12.2186 5.5 14.2614 5.5 16.5C5.5 16.5 5.5 18.7386 6.36402 20.7814C6.36402 20.7814 7.19889 22.7552 8.72183 24.2782C8.72183 24.2782 10.2448 25.8011 12.2186 26.636C12.2186 26.636 14.2614 27.5 16.5 27.5C16.5 27.5 18.7386 27.5 20.7814 26.636C20.7814 26.636 22.7552 25.8011 24.2782 24.2782C24.2782 24.2782 25.8011 22.7552 26.636 20.7814C26.636 20.7814 27.5 18.7386 27.5 16.5C27.5 16.5 27.5 14.2614 26.636 12.2186C26.636 12.2186 25.8011 10.2448 24.2782 8.72183C24.2782 8.72183 22.7552 7.19889 20.7814 6.36402C20.7814 6.36402 18.7386 5.5 16.5 5.5Z" fill="#1C1C1C"/>
<path fill-rule="evenodd" clip-rule="evenodd" d="M10.8068 22.7194C10.299 22.5023 10.0634 21.9146 10.2805 21.4068L13.4555 13.9818C13.5537 13.7522 13.7342 13.5677 13.9615 13.4645L21.724 9.93946C21.9861 9.82043 22.2868 9.82014 22.5492 9.93866C22.7909 10.0478 22.9793 10.2486 23.073 10.4967C23.1667 10.7448 23.158 11.02 23.0488 11.2617L19.5363 19.0367C19.4332 19.2648 19.2483 19.446 19.0181 19.5444L11.5931 22.7194C11.342 22.8268 11.0579 22.8268 10.8068 22.7194ZM17.8739 17.8585L13.1 19.8999L15.1418 15.125L20.1327 12.8586L17.8739 17.8585Z" fill="#1C1C1C"/>
</svg>
