<svg width="33" height="33" viewBox="0 0 33 33" fill="none" xmlns="http://www.w3.org/2000/svg">
<path fill-rule="evenodd" clip-rule="evenodd" d="M7.5 6.5H25.5C25.7652 6.5 26.0196 6.60535 26.2071 6.79285C26.3947 6.98047 26.5 7.23474 26.5 7.5V25.5C26.5 25.7653 26.3947 26.0195 26.2071 26.2072C26.0196 26.3947 25.7652 26.5 25.5 26.5H7.5C7.2348 26.5 6.98041 26.3947 6.79291 26.2072C6.60535 26.0195 6.5 25.7653 6.5 25.5V7.5C6.5 7.23474 6.60535 6.98047 6.79291 6.79285C6.98041 6.60535 7.2348 6.5 7.5 6.5ZM13 20H20V13H13V20Z" fill="black" fill-opacity="0.1"/>
<path fill-rule="evenodd" clip-rule="evenodd" d="M12 20V13C12 12.4477 12.4477 12 13 12H20C20.5523 12 21 12.4477 21 13V20C21 20.5523 20.5523 21 20 21H13C12.4477 21 12 20.5523 12 20ZM19 19H14V14H19V19Z" fill="#1C1C1C"/>
<path fill-rule="evenodd" clip-rule="evenodd" d="M5.5 7.5C5.5 7.5 5.5 6.67157 6.08579 6.08579C6.08579 6.08579 6.67157 5.5 7.5 5.5H25.5C25.5 5.5 26.3284 5.5 26.9142 6.08579C26.9142 6.08579 27.5 6.67157 27.5 7.5V25.5C27.5 25.5 27.5 26.3284 26.9142 26.9142C26.9142 26.9142 26.3284 27.5 25.5 27.5H7.5C7.5 27.5 6.67157 27.5 6.08579 26.9142C6.08579 26.9142 5.5 26.3284 5.5 25.5V7.5ZM7.5 7.5V25.5H25.5V7.5H7.5Z" fill="#1C1C1C"/>
<path d="M26.5 14.5H29.5C30.0523 14.5 30.5 14.0523 30.5 13.5C30.5 12.9477 30.0523 12.5 29.5 12.5H26.5C25.9477 12.5 25.5 12.9477 25.5 13.5C25.5 14.0523 25.9477 14.5 26.5 14.5Z" fill="#1C1C1C"/>
<path d="M26.5 20.5H29.5C30.0523 20.5 30.5 20.0523 30.5 19.5C30.5 18.9477 30.0523 18.5 29.5 18.5H26.5C25.9477 18.5 25.5 18.9477 25.5 19.5C25.5 20.0523 25.9477 20.5 26.5 20.5Z" fill="#1C1C1C"/>
<path d="M3.5 14.5H6.5C7.05228 14.5 7.5 14.0523 7.5 13.5C7.5 12.9477 7.05228 12.5 6.5 12.5H3.5C2.94772 12.5 2.5 12.9477 2.5 13.5C2.5 14.0523 2.94772 14.5 3.5 14.5Z" fill="#1C1C1C"/>
<path d="M3.5 20.5H6.5C7.05228 20.5 7.5 20.0523 7.5 19.5C7.5 18.9477 7.05228 18.5 6.5 18.5H3.5C2.94772 18.5 2.5 18.9477 2.5 19.5C2.5 20.0523 2.94772 20.5 3.5 20.5Z" fill="#1C1C1C"/>
<path d="M18.5 26.5V29.5C18.5 30.0523 18.9477 30.5 19.5 30.5C20.0523 30.5 20.5 30.0523 20.5 29.5V26.5C20.5 25.9477 20.0523 25.5 19.5 25.5C18.9477 25.5 18.5 25.9477 18.5 26.5Z" fill="#1C1C1C"/>
<path d="M12.5 26.5V29.5C12.5 30.0523 12.9477 30.5 13.5 30.5C14.0523 30.5 14.5 30.0523 14.5 29.5V26.5C14.5 25.9477 14.0523 25.5 13.5 25.5C12.9477 25.5 12.5 25.9477 12.5 26.5Z" fill="#1C1C1C"/>
<path d="M18.5 3.5V6.5C18.5 7.05228 18.9477 7.5 19.5 7.5C20.0523 7.5 20.5 7.05228 20.5 6.5V3.5C20.5 2.94772 20.0523 2.5 19.5 2.5C18.9477 2.5 18.5 2.94772 18.5 3.5Z" fill="#1C1C1C"/>
<path d="M12.5 3.5V6.5C12.5 7.05228 12.9477 7.5 13.5 7.5C14.0523 7.5 14.5 7.05228 14.5 6.5V3.5C14.5 2.94772 14.0523 2.5 13.5 2.5C12.9477 2.5 12.5 2.94772 12.5 3.5Z" fill="#1C1C1C"/>
</svg>
