<svg width="33" height="33" viewBox="0 0 33 33" fill="none" xmlns="http://www.w3.org/2000/svg">
<path d="M4.5 16.5H28.5C29.0522 16.5 29.5 16.9478 29.5 17.5V25.5C29.5 26.0522 29.0522 26.5 28.5 26.5H4.5C3.94775 26.5 3.5 26.0522 3.5 25.5V17.5C3.5 16.9478 3.94775 16.5 4.5 16.5Z" fill="black" fill-opacity="0.1"/>
<path d="M4.5 17.5H10.5C11.0523 17.5 11.5 17.0523 11.5 16.5C11.5 15.9477 11.0523 15.5 10.5 15.5H4.5C3.67157 15.5 3.08579 16.0858 3.08579 16.0858C2.5 16.6716 2.5 17.5 2.5 17.5V25.5C2.5 26.3284 3.08579 26.9142 3.08579 26.9142C3.67157 27.5 4.5 27.5 4.5 27.5H28.5C29.3284 27.5 29.9142 26.9142 29.9142 26.9142C30.5 26.3284 30.5 25.5 30.5 25.5V17.5C30.5 16.6716 29.9142 16.0858 29.9142 16.0858C29.3284 15.5 28.5 15.5 28.5 15.5H22.5C21.9477 15.5 21.5 15.9477 21.5 16.5C21.5 17.0523 21.9477 17.5 22.5 17.5H28.5V25.5H4.5V17.5Z" fill="#1C1C1C"/>
<path d="M15.5 3.5V16.5C15.5 17.0523 15.9477 17.5 16.5 17.5C17.0523 17.5 17.5 17.0523 17.5 16.5V3.5C17.5 2.94772 17.0523 2.5 16.5 2.5C15.9477 2.5 15.5 2.94772 15.5 3.5Z" fill="#1C1C1C"/>
<path d="M23.2067 11.2075L23.2071 11.2071C23.3946 11.0196 23.5 10.7652 23.5 10.5C23.5 10.2348 23.3946 9.98043 23.2071 9.79289C23.0196 9.60536 22.7652 9.5 22.5 9.5C22.2348 9.5 21.9804 9.60536 21.7929 9.79289L21.7925 9.79327L16.5 15.0858L11.2072 9.79301C11.0196 9.60536 10.7652 9.5 10.5 9.5C10.2348 9.5 9.98043 9.60536 9.79289 9.79289C9.60536 9.98043 9.5 10.2348 9.5 10.5C9.5 10.7652 9.60536 11.0196 9.79289 11.2071L15.7929 17.2071C15.9804 17.3946 16.2348 17.5 16.5 17.5C16.7652 17.5 17.0196 17.3946 17.2071 17.2071L23.2067 11.2075Z" fill="#1C1C1C"/>
<path d="M25.5 21.5C25.5 22.3284 24.8284 23 24 23C23.1716 23 22.5 22.3284 22.5 21.5C22.5 20.6716 23.1716 20 24 20C24.8284 20 25.5 20.6716 25.5 21.5Z" fill="#1C1C1C"/>
</svg>
