<svg width="33" height="33" viewBox="0 0 33 33" fill="none" xmlns="http://www.w3.org/2000/svg">
<path d="M5.5 21.5C13.5 15.5 19.5 27.5 27.5 21.5V6.5C19.5 12.5 13.5 0.5 5.5 6.5V21.5Z" fill="black" fill-opacity="0.1"/>
<path d="M6.5 27.5V6.5C6.5 5.94772 6.05228 5.5 5.5 5.5C4.94772 5.5 4.5 5.94772 4.5 6.5V27.5C4.5 28.0523 4.94772 28.5 5.5 28.5C6.05228 28.5 6.5 28.0523 6.5 27.5Z" fill="#1C1C1C"/>
<path d="M11.2904 3.81781C7.87999 3.46501 4.9 5.7 4.9 5.7C4.68783 5.85913 4.54756 6.09603 4.51005 6.35858C4.50336 6.40543 4.5 6.45269 4.5 6.5L4.50001 6.50344C4.50074 6.71863 4.57088 6.92785 4.7 7.1C4.88885 7.35181 5.18524 7.5 5.5 7.5L5.51312 7.49992C5.72499 7.49714 5.93049 7.42713 6.1 7.3C8.45334 5.535 11.0846 5.8072 11.0846 5.8072C12.1784 5.92035 13.5409 6.3906 13.5409 6.3906C14.3894 6.68345 16.1061 7.41915 16.1061 7.41915C17.8894 8.18345 18.8066 8.49997 18.8066 8.49997C20.3867 9.04535 21.7096 9.18219 21.7096 9.18219C24.2216 9.44205 26.5 8.29799 26.5 8.29799V20.9839C24.3242 22.442 21.9154 22.1928 21.9154 22.1928C20.8216 22.0797 19.4591 21.6094 19.4591 21.6094C18.6106 21.3166 16.8939 20.5809 16.8939 20.5809C15.1106 19.8166 14.1934 19.5 14.1934 19.5C12.6133 18.9547 11.2904 18.8178 11.2904 18.8178C7.88163 18.4652 4.90285 20.6979 4.90285 20.6979C4.90143 20.6989 4.9 20.7 4.9 20.7C4.68783 20.8591 4.54756 21.096 4.51005 21.3586C4.50336 21.4054 4.5 21.4527 4.5 21.5L4.50001 21.5034C4.50074 21.7186 4.57088 21.9278 4.7 22.1C4.88885 22.3518 5.18524 22.5 5.5 22.5L5.51312 22.4999C5.72499 22.4971 5.93049 22.4271 6.1 22.3C8.45334 20.535 11.0846 20.8072 11.0846 20.8072C12.1784 20.9204 13.5409 21.3906 13.5409 21.3906C14.3894 21.6834 16.1061 22.4192 16.1061 22.4192C17.8894 23.1834 18.8066 23.5 18.8066 23.5C20.3867 24.0453 21.7096 24.1822 21.7096 24.1822C25.12 24.535 28.1 22.3 28.1 22.3C28.3518 22.1111 28.5 21.8148 28.5 21.5V6.5C28.5 6.28363 28.4298 6.0731 28.3 5.9C27.9686 5.45818 27.3418 5.36863 26.9 5.7C24.5467 7.46501 21.9154 7.19281 21.9154 7.19281C20.8216 7.07966 19.4591 6.60941 19.4591 6.60941C18.6106 6.31656 16.8939 5.58086 16.8939 5.58086C15.1106 4.81656 14.1934 4.50003 14.1934 4.50003C12.6133 3.95466 11.2904 3.81781 11.2904 3.81781Z" fill="#1C1C1C"/>
</svg>
