<svg width="33" height="33" viewBox="0 0 33 33" fill="none" xmlns="http://www.w3.org/2000/svg">
<path d="M5.5 6.5H28.5L22.5 14L28.5 21.5H5.5V6.5Z" fill="black" fill-opacity="0.1"/>
<path fill-rule="evenodd" clip-rule="evenodd" d="M4.5 6.5V21.5V27.5C4.5 28.0523 4.94772 28.5 5.5 28.5C6.05228 28.5 6.5 28.0523 6.5 27.5V22.5H28.5C29.0523 22.5 29.5 22.0523 29.5 21.5C29.5 21.2729 29.4227 21.0526 29.2809 20.8753L23.7806 14L29.2809 7.1247C29.6259 6.69343 29.556 6.06414 29.1247 5.71913C28.9474 5.57728 28.7271 5.5 28.5 5.5H5.5C4.94772 5.5 4.5 5.94772 4.5 6.5ZM26.4194 20.5H6.5V7.5H26.4194L21.7191 13.3753C21.427 13.7405 21.427 14.2595 21.7191 14.6247L26.4194 20.5Z" fill="#1C1C1C"/>
</svg>
