<svg width="20" height="20" viewBox="0 0 20 20" fill="none" xmlns="http://www.w3.org/2000/svg">
<path d="M5 10.625H15C15.3452 10.625 15.625 10.3452 15.625 10C15.625 9.65482 15.3452 9.375 15 9.375H5C4.65482 9.375 4.375 9.65482 4.375 10C4.375 10.3452 4.65482 10.625 5 10.625Z" fill="#1C1C1C"/>
<path d="M1.875 6.875H18.125C18.4702 6.875 18.75 6.59518 18.75 6.25C18.75 5.90482 18.4702 5.625 18.125 5.625H1.875C1.52982 5.625 1.25 5.90482 1.25 6.25C1.25 6.59518 1.52982 6.875 1.875 6.875Z" fill="#1C1C1C"/>
<path d="M8.125 14.375H11.875C12.2202 14.375 12.5 14.0952 12.5 13.75C12.5 13.4048 12.2202 13.125 11.875 13.125H8.125C7.77982 13.125 7.5 13.4048 7.5 13.75C7.5 14.0952 7.77982 14.375 8.125 14.375Z" fill="#1C1C1C"/>
</svg>
