<svg width="21" height="20" viewBox="0 0 21 20" fill="none" xmlns="http://www.w3.org/2000/svg">
<path d="M3.78891 3.75H17.2107C17.332 3.75008 17.4506 3.78532 17.552 3.85162C17.6537 3.91785 17.7338 4.01222 17.7826 4.12315C17.8314 4.23409 17.847 4.35684 17.8273 4.47647C17.8076 4.5961 17.7534 4.70741 17.6717 4.79691L12.5389 10.4453C12.4321 10.5597 12.3734 10.7107 12.3749 10.8672V15.2891C12.3758 15.3929 12.3505 15.4954 12.3013 15.5869C12.2522 15.6783 12.1806 15.756 12.0935 15.8125L9.59351 17.4766C9.49982 17.5383 9.39102 17.5737 9.27887 17.5789C9.16672 17.5842 9.05518 17.5591 8.95615 17.5063C8.85696 17.4535 8.77396 17.3751 8.71567 17.2791C8.65738 17.1832 8.62595 17.0732 8.62488 16.9609V10.8672C8.62625 10.7107 8.5675 10.5597 8.46069 10.4453L3.32794 4.79691C3.24615 4.70741 3.19199 4.5961 3.1723 4.47647C3.15262 4.35684 3.16818 4.23409 3.21701 4.12315C3.26584 4.01222 3.34595 3.91785 3.44757 3.85162C3.54904 3.78532 3.6676 3.75008 3.78891 3.75Z" fill="black" fill-opacity="0.1"/>
<path fill-rule="evenodd" clip-rule="evenodd" d="M3.78897 3.125C3.41741 3.12512 3.10625 3.32818 3.10625 3.32818C2.79508 3.53123 2.64535 3.87129 2.64535 3.87129C2.49563 4.21135 2.55596 4.57798 2.55596 4.57798C2.6163 4.94461 2.8671 5.21875 2.8671 5.21875L7.9985 10.8656L7.99919 10.866C8.00009 10.8659 8.00014 10.8612 8.00014 10.8612L8.00011 16.9609C8.00362 17.3104 8.18175 17.6036 8.18175 17.6036C8.35989 17.8968 8.66277 18.058 8.66277 18.058C8.96564 18.2192 9.30837 18.2032 9.30837 18.2032C9.6511 18.1872 9.93764 17.9985 9.93764 17.9985L12.4402 16.3328C12.7014 16.1634 12.8522 15.8827 12.8522 15.8827C13.003 15.602 13.0001 15.2833 13.0001 15.2833L13.0001 10.8673L18.1345 5.2172C18.3839 4.94461 18.4443 4.57798 18.4443 4.57798C18.5046 4.21135 18.3549 3.87129 18.3549 3.87129C18.2051 3.53123 17.894 3.32818 17.894 3.32818C17.5828 3.12512 17.2112 3.125 17.2112 3.125H3.78917H3.78897ZM8.9236 10.025L3.78937 4.375L17.2108 4.375L17.2094 4.37655L12.0825 10.0186C11.7454 10.3795 11.7501 10.8672 11.7501 10.8672L11.7501 15.2907L11.7475 15.2922L9.25011 16.9546L9.25008 10.8732C9.25484 10.3795 8.9236 10.025 8.9236 10.025Z" fill="#1C1C1C"/>
</svg>
