<svg width="33" height="32" viewBox="0 0 33 32" fill="none" xmlns="http://www.w3.org/2000/svg">
<path d="M28.5 16C28.5 22.6274 23.1274 28 16.5 28C9.87256 28 4.5 22.6274 4.5 16C4.5 9.37256 9.87256 4 16.5 4C23.1274 4 28.5 9.37256 28.5 16Z" fill="black" fill-opacity="0.1"/>
<path fill-rule="evenodd" clip-rule="evenodd" d="M16.5 3C16.5 3 19.1442 3 21.5605 4.02201C21.5605 4.02201 23.8936 5.00884 25.6924 6.80761C25.6924 6.80761 27.4912 8.60638 28.478 10.9395C28.478 10.9395 29.5 13.3558 29.5 16C29.5 16 29.5 18.6442 28.478 21.0605C28.478 21.0605 27.4912 23.3936 25.6924 25.1924C25.6924 25.1924 23.8936 26.9912 21.5605 27.978C21.5605 27.978 19.1442 29 16.5 29C16.5 29 13.8558 29 11.4395 27.978C11.4395 27.978 9.10638 26.9912 7.30761 25.1924C7.30761 25.1924 5.50884 23.3936 4.52202 21.0605C4.52202 21.0605 3.5 18.6442 3.5 16C3.5 16 3.5 13.3558 4.52202 10.9395C4.52202 10.9395 5.50885 8.60638 7.30761 6.80761C7.30761 6.80761 9.10638 5.00884 11.4395 4.02201C11.4395 4.02201 13.8558 3 16.5 3ZM16.5 5C16.5 5 14.2614 5 12.2186 5.86402C12.2186 5.86402 10.2448 6.69889 8.72183 8.22182C8.72183 8.22182 7.1989 9.74476 6.36402 11.7186C6.36402 11.7186 5.5 13.7614 5.5 16C5.5 16 5.5 18.2386 6.36402 20.2814C6.36402 20.2814 7.19889 22.2552 8.72183 23.7782C8.72183 23.7782 10.2448 25.3011 12.2186 26.136C12.2186 26.136 14.2614 27 16.5 27C16.5 27 18.7386 27 20.7814 26.136C20.7814 26.136 22.7552 25.3011 24.2782 23.7782C24.2782 23.7782 25.8011 22.2552 26.636 20.2814C26.636 20.2814 27.5 18.2386 27.5 16C27.5 16 27.5 13.7614 26.636 11.7186C26.636 11.7186 25.8011 9.74476 24.2782 8.22183C24.2782 8.22183 22.7552 6.69889 20.7814 5.86402C20.7814 5.86402 18.7386 5 16.5 5Z" fill="#1C1C1C"/>
<path d="M5.1875 13H27.8125C28.3648 13 28.8125 12.5523 28.8125 12C28.8125 11.4477 28.3648 11 27.8125 11H5.1875C4.63522 11 4.1875 11.4477 4.1875 12C4.1875 12.5523 4.63522 13 5.1875 13Z" fill="#1C1C1C"/>
<path d="M5.1875 21H27.8125C28.3648 21 28.8125 20.5523 28.8125 20C28.8125 19.4477 28.3648 19 27.8125 19H5.1875C4.63522 19 4.1875 19.4477 4.1875 20C4.1875 20.5523 4.63522 21 5.1875 21Z" fill="#1C1C1C"/>
<path fill-rule="evenodd" clip-rule="evenodd" d="M16.5 3.32501C16.5 3.32501 17.9278 3.32501 19.1489 4.531C19.1489 4.531 20.1856 5.55487 20.9548 7.35086C20.9548 7.35086 22.5 10.9589 22.5 16C22.5 16 22.5 21.0411 20.9548 24.6492C20.9548 24.6492 20.1856 26.4452 19.1489 27.469C19.1489 27.469 17.9278 28.675 16.5 28.675C16.5 28.675 15.0722 28.675 13.8511 27.469C13.8511 27.469 12.8144 26.4452 12.0452 24.6492C12.0452 24.6492 10.5 21.0411 10.5 16C10.5 16 10.5 10.9589 12.0452 7.35086C12.0452 7.35086 12.8144 5.55487 13.8511 4.531C13.8511 4.531 15.0722 3.32501 16.5 3.32501ZM16.5 5.32501C16.5 5.32501 15.8933 5.32501 15.2565 5.95399C15.2565 5.95399 14.4986 6.70248 13.8837 8.13822C13.8837 8.13822 12.5 11.3692 12.5 16C12.5 16 12.5 20.6308 13.8837 23.8618C13.8837 23.8618 14.4986 25.2975 15.2565 26.046C15.2565 26.046 15.8933 26.675 16.5 26.675C16.5 26.675 17.1067 26.675 17.7435 26.046C17.7435 26.046 18.5014 25.2975 19.1163 23.8618C19.1163 23.8618 20.5 20.6308 20.5 16C20.5 16 20.5 11.3692 19.1163 8.13822C19.1163 8.13822 18.5014 6.70248 17.7435 5.95399C17.7435 5.95399 17.1067 5.32501 16.5 5.32501Z" fill="#1C1C1C"/>
</svg>
