<svg width="33" height="33" viewBox="0 0 33 33" fill="none" xmlns="http://www.w3.org/2000/svg">
<path fill-rule="evenodd" clip-rule="evenodd" d="M5.5 6.5H27.5C27.7651 6.5 28.0195 6.60547 28.207 6.79297C28.3945 6.98047 28.5 7.23486 28.5 7.5V25.5C28.5 25.7651 28.3945 26.0195 28.207 26.207C28.0195 26.3945 27.7651 26.5 27.5 26.5H5.5C5.23486 26.5 4.98047 26.3945 4.79297 26.207C4.60547 26.0195 4.5 25.7651 4.5 25.5V7.5C4.5 7.23486 4.60547 6.98047 4.79297 6.79297C4.98047 6.60547 5.23486 6.5 5.5 6.5ZM10.3457 17.9944C10.8391 18.324 11.4192 18.5 12.0125 18.5C12.407 18.5017 12.7979 18.4253 13.1626 18.2749C13.5273 18.1248 13.8586 17.9038 14.1375 17.625C14.4165 17.3462 14.6372 17.0146 14.7876 16.6499C14.9377 16.2854 15.0142 15.8945 15.0125 15.5C15.0125 14.9067 14.8367 14.3267 14.5068 13.8333C14.1772 13.3398 13.7087 12.9553 13.1606 12.7283C12.6123 12.5012 12.0093 12.4419 11.4272 12.5576C10.8452 12.6733 10.3108 12.9592 9.89111 13.3787C9.47168 13.7983 9.18579 14.3328 9.07007 14.9148C8.95435 15.4966 9.01392 16.0999 9.24097 16.6479C9.46802 17.1963 9.85254 17.6648 10.3457 17.9944Z" fill="black" fill-opacity="0.1"/>
<path d="M19.5 15.5H24.5C25.0523 15.5 25.5 15.0523 25.5 14.5C25.5 13.9477 25.0523 13.5 24.5 13.5H19.5C18.9477 13.5 18.5 13.9477 18.5 14.5C18.5 15.0523 18.9477 15.5 19.5 15.5Z" fill="#1C1C1C"/>
<path d="M19.5 19.5H24.5C25.0523 19.5 25.5 19.0523 25.5 18.5C25.5 17.9477 25.0523 17.5 24.5 17.5H19.5C18.9477 17.5 18.5 17.9477 18.5 18.5C18.5 19.0523 18.9477 19.5 19.5 19.5Z" fill="#1C1C1C"/>
<path fill-rule="evenodd" clip-rule="evenodd" d="M12.0127 11.5C12.0127 11.5 13.6695 11.5 14.8411 12.6716C14.8411 12.6716 16.0127 13.8431 16.0127 15.5C16.0127 15.5 16.0127 17.1569 14.8411 18.3284C14.8411 18.3284 13.6695 19.5 12.0127 19.5C12.0127 19.5 10.3558 19.5 9.18427 18.3284C9.18427 18.3284 8.0127 17.1569 8.0127 15.5C8.0127 15.5 8.0127 13.8431 9.18427 12.6716C9.18427 12.6716 10.3558 11.5 12.0127 11.5ZM12.0127 13.5C12.0127 13.5 11.1843 13.5 10.5985 14.0858C10.5985 14.0858 10.0127 14.6716 10.0127 15.5C10.0127 15.5 10.0127 16.3284 10.5985 16.9142C10.5985 16.9142 11.1843 17.5 12.0127 17.5C12.0127 17.5 12.8411 17.5 13.4269 16.9142C13.4269 16.9142 14.0127 16.3284 14.0127 15.5C14.0127 15.5 14.0127 14.6716 13.4269 14.0858C13.4269 14.0858 12.8411 13.5 12.0127 13.5Z" fill="#1C1C1C"/>
<path d="M13.8522 20.1223C14.6632 20.7518 14.9184 21.7461 14.9184 21.7461L14.9187 21.7471L14.9189 21.748C15.0322 22.1905 15.4309 22.5 15.8877 22.5L15.9078 22.4998C15.9847 22.4983 16.0612 22.4878 16.1357 22.4688C16.5782 22.3555 16.8877 21.9568 16.8877 21.5L16.8875 21.4799C16.8859 21.403 16.8755 21.3265 16.8564 21.252C16.4316 19.5927 15.0786 18.5424 15.0786 18.5424C13.7255 17.4922 12.0127 17.4922 12.0127 17.4922C10.2999 17.4922 8.94683 18.5424 8.94683 18.5424C7.59379 19.5927 7.16895 21.252 7.16895 21.252C7.14819 21.333 7.1377 21.4163 7.1377 21.5C7.1377 21.5142 7.138 21.5284 7.13861 21.5427C7.14564 21.7074 7.19328 21.8678 7.2773 22.0096C7.41245 22.2378 7.63273 22.403 7.88966 22.4688C7.9707 22.4895 8.05403 22.5 8.1377 22.5C8.15192 22.5 8.16614 22.4997 8.18035 22.4991C8.34506 22.4921 8.50547 22.4444 8.64731 22.3604C8.87551 22.2252 9.04066 22.005 9.10645 21.748C9.36135 20.7525 10.1732 20.1223 10.1732 20.1223C10.985 19.4922 12.0127 19.4922 12.0127 19.4922C13.0404 19.4922 13.8522 20.1223 13.8522 20.1223Z" fill="#1C1C1C"/>
<path fill-rule="evenodd" clip-rule="evenodd" d="M3.5 7.5C3.5 7.5 3.5 6.67157 4.08579 6.08579C4.08579 6.08579 4.67157 5.5 5.5 5.5H27.5C27.5 5.5 28.3284 5.5 28.9142 6.08579C28.9142 6.08579 29.5 6.67157 29.5 7.5V25.5C29.5 25.5 29.5 26.3284 28.9142 26.9142C28.9142 26.9142 28.3284 27.5 27.5 27.5H5.5C5.5 27.5 4.67157 27.5 4.08579 26.9142C4.08579 26.9142 3.5 26.3284 3.5 25.5V7.5ZM5.5 7.5V25.5H27.5V7.5H5.5Z" fill="#1C1C1C"/>
</svg>
