<svg width="20" height="20" viewBox="0 0 20 20" fill="none" xmlns="http://www.w3.org/2000/svg">
<path d="M3.125 10.625H16.875C17.2202 10.625 17.5 10.3452 17.5 10C17.5 9.65482 17.2202 9.375 16.875 9.375H3.125C2.77982 9.375 2.5 9.65482 2.5 10C2.5 10.3452 2.77982 10.625 3.125 10.625Z" fill="#1C1C1C"/>
<path d="M3.125 5.625H16.875C17.2202 5.625 17.5 5.34518 17.5 5C17.5 4.65482 17.2202 4.375 16.875 4.375H3.125C2.77982 4.375 2.5 4.65482 2.5 5C2.5 5.34518 2.77982 5.625 3.125 5.625Z" fill="#1C1C1C"/>
<path d="M3.125 15.625H16.875C17.2202 15.625 17.5 15.3452 17.5 15C17.5 14.6548 17.2202 14.375 16.875 14.375H3.125C2.77982 14.375 2.5 14.6548 2.5 15C2.5 15.3452 2.77982 15.625 3.125 15.625Z" fill="#1C1C1C"/>
</svg>
