<svg width="33" height="33" viewBox="0 0 33 33" fill="none" xmlns="http://www.w3.org/2000/svg">
<path d="M28.5 7.5L16.5 18.5L4.5 7.5H28.5Z" fill="black" fill-opacity="0.1"/>
<path fill-rule="evenodd" clip-rule="evenodd" d="M3.5 24.5V7.5C3.5 6.94772 3.94772 6.5 4.5 6.5H28.5C29.0523 6.5 29.5 6.94772 29.5 7.5V24.5C29.5 24.5 29.5 25.3284 28.9142 25.9142C28.9142 25.9142 28.3284 26.5 27.5 26.5H5.5C5.5 26.5 4.67157 26.5 4.08579 25.9142C4.08579 25.9142 3.5 25.3284 3.5 24.5ZM5.5 24.5H27.5V8.5H5.5V24.5Z" fill="#1C1C1C"/>
<path d="M5.17572 6.76285C4.99129 6.59379 4.75019 6.5 4.5 6.5C4.48552 6.5 4.47103 6.50031 4.45656 6.50094C4.1916 6.51246 3.94206 6.62877 3.76285 6.82428C3.59379 7.00871 3.5 7.24981 3.5 7.5C3.5 7.51448 3.50031 7.52897 3.50094 7.54344C3.51246 7.8084 3.62877 8.05794 3.82428 8.23715L15.8243 19.2372C16.2066 19.5876 16.7934 19.5876 17.1757 19.2372L29.1751 8.23777L29.1757 8.23715C29.3824 8.04774 29.5 7.78031 29.5 7.5L29.5 7.49169C29.4979 7.24437 29.4043 7.00659 29.2372 6.82428C29.0579 6.62877 28.8084 6.51246 28.5434 6.50094C28.529 6.50031 28.5145 6.5 28.5 6.5L28.4954 6.50001C28.2468 6.50115 28.0075 6.59486 27.8243 6.76285L27.8236 6.76346L16.5 17.1434L5.17572 6.76285Z" fill="#1C1C1C"/>
</svg>
