<svg width="20" height="20" viewBox="0 0 20 20" fill="none" xmlns="http://www.w3.org/2000/svg">
<path d="M10 12.5H7.5V10L13.125 4.375L15.625 6.875L10 12.5Z" fill="black" fill-opacity="0.1"/>
<path fill-rule="evenodd" clip-rule="evenodd" d="M17.9419 5.44194L10.4419 12.9419C10.3247 13.0592 10.1658 13.125 10 13.125H7.5C7.15482 13.125 6.875 12.8452 6.875 12.5V10C6.875 9.83424 6.94085 9.67527 7.05806 9.55806L14.5581 2.05806C14.6753 1.94085 14.8342 1.875 15 1.875C15.1658 1.875 15.3247 1.94085 15.4419 2.05806L17.9419 4.55806C18.186 4.80214 18.186 5.19786 17.9419 5.44194ZM15 3.38388L16.6161 5L9.74112 11.875H8.125V10.2589L15 3.38388Z" fill="#1C1C1C"/>
<path d="M15.1829 7.31675L15.1831 7.31694C15.3003 7.43415 15.4592 7.5 15.625 7.5C15.6358 7.5 15.6466 7.49972 15.6573 7.49916C15.8117 7.49116 15.9576 7.42624 16.0669 7.31694C16.1842 7.19973 16.25 7.04076 16.25 6.875C16.25 6.70924 16.1842 6.55027 16.0669 6.43306L13.5669 3.93306C13.4497 3.81585 13.2908 3.75 13.125 3.75C12.9592 3.75 12.8003 3.81585 12.6831 3.93306C12.5658 4.05027 12.5 4.20924 12.5 4.375C12.5 4.54076 12.5658 4.69973 12.6831 4.81694L15.1829 7.31675Z" fill="#1C1C1C"/>
<path d="M3.75 3.75H10.625C10.9702 3.75 11.25 3.47018 11.25 3.125C11.25 2.77982 10.9702 2.5 10.625 2.5H3.75C3.23223 2.5 2.86612 2.86612 2.86612 2.86612C2.5 3.23223 2.5 3.75 2.5 3.75V16.25C2.5 16.7678 2.86612 17.1339 2.86612 17.1339C3.23223 17.5 3.75 17.5 3.75 17.5H16.25C16.7678 17.5 17.1339 17.1339 17.1339 17.1339C17.5 16.7678 17.5 16.25 17.5 16.25V9.375C17.5 9.02982 17.2202 8.75 16.875 8.75C16.5298 8.75 16.25 9.02982 16.25 9.375V16.25H3.75V3.75Z" fill="#1C1C1C"/>
</svg>
