<svg width="33" height="33" viewBox="0 0 33 33" fill="none" xmlns="http://www.w3.org/2000/svg">
<path d="M8.3125 18.5H24.0125C24.4799 18.5015 24.933 18.3381 25.2919 18.0386C25.6508 17.739 25.8927 17.3228 25.975 16.8625L27.5 8.5H6.5L8.3125 18.5Z" fill="black" fill-opacity="0.1"/>
<path d="M4.7625 2.5H2.5C1.94772 2.5 1.5 2.94772 1.5 3.5C1.5 4.05228 1.94772 4.5 2.5 4.5H4.75293L8.24114 23.6789C8.32762 24.1544 8.74174 24.5 9.225 24.5H23.5C24.0523 24.5 24.5 24.0523 24.5 23.5C24.5 22.9477 24.0523 22.5 23.5 22.5H10.0595L6.72208 4.15005C6.5958 3.43941 6.04481 2.97318 6.04481 2.97318C5.49382 2.50696 4.7625 2.5 4.7625 2.5Z" fill="#1C1C1C"/>
<path fill-rule="evenodd" clip-rule="evenodd" d="M10.5 22.5C10.5 22.5 11.9497 22.5 12.9749 23.5251C12.9749 23.5251 14 24.5503 14 26C14 26 14 27.4497 12.9749 28.4749C12.9749 28.4749 11.9497 29.5 10.5 29.5C10.5 29.5 9.05025 29.5 8.02513 28.4749C8.02513 28.4749 7 27.4497 7 26C7 26 7 24.5503 8.02513 23.5251C8.02513 23.5251 9.05025 22.5 10.5 22.5ZM10.5 24.5C10.5 24.5 9.87868 24.5 9.43934 24.9393C9.43934 24.9393 9 25.3787 9 26C9 26 9 26.6213 9.43934 27.0607C9.43934 27.0607 9.87868 27.5 10.5 27.5C10.5 27.5 11.1213 27.5 11.5607 27.0607C11.5607 27.0607 12 26.6213 12 26C12 26 12 25.3787 11.5607 24.9393C11.5607 24.9393 11.1213 24.5 10.5 24.5Z" fill="#1C1C1C"/>
<path fill-rule="evenodd" clip-rule="evenodd" d="M23.5 22.5C23.5 22.5 24.9497 22.5 25.9749 23.5251C25.9749 23.5251 27 24.5503 27 26C27 26 27 27.4497 25.9749 28.4749C25.9749 28.4749 24.9497 29.5 23.5 29.5C23.5 29.5 22.0503 29.5 21.0251 28.4749C21.0251 28.4749 20 27.4497 20 26C20 26 20 24.5503 21.0251 23.5251C21.0251 23.5251 22.0503 22.5 23.5 22.5ZM23.5 24.5C23.5 24.5 22.8787 24.5 22.4393 24.9393C22.4393 24.9393 22 25.3787 22 26C22 26 22 26.6213 22.4393 27.0607C22.4393 27.0607 22.8787 27.5 23.5 27.5C23.5 27.5 24.1213 27.5 24.5607 27.0607C24.5607 27.0607 25 26.6213 25 26C25 26 25 25.3787 24.5607 24.9393C24.5607 24.9393 24.1213 24.5 23.5 24.5Z" fill="#1C1C1C"/>
<path d="M27.5 7.5H6.5C5.94772 7.5 5.5 7.94772 5.5 8.5C5.5 9.05228 5.94772 9.5 6.5 9.5H26.3011L24.9912 16.6831C24.9273 17.0404 24.6512 17.2707 24.6512 17.2707C24.3751 17.5011 24.0155 17.5 24.0155 17.5L8.3125 17.5C7.76022 17.5 7.3125 17.9477 7.3125 18.5C7.3125 19.0523 7.76022 19.5 8.3125 19.5L24.0095 19.5C25.0973 19.5033 25.9325 18.8064 25.9325 18.8064C26.7678 18.1094 26.9588 17.0419 26.9588 17.0419L28.4838 8.6794C28.4946 8.62021 28.5 8.56017 28.5 8.5C28.5 7.94772 28.0523 7.5 27.5 7.5Z" fill="#1C1C1C"/>
</svg>
