<svg width="33" height="33" viewBox="0 0 33 33" fill="none" xmlns="http://www.w3.org/2000/svg">
<path d="M12.5 7.5H28.5C28.7652 7.5 29.0196 7.60547 29.2071 7.79297C29.3947 7.98047 29.5 8.23486 29.5 8.5V11.6001C29.5013 11.8303 29.422 12.0537 29.2759 12.2319C29.1299 12.4099 28.9261 12.5312 28.7 12.575C27.8006 12.7659 26.9941 13.26 26.4154 13.9746C25.8367 14.689 25.5209 15.5806 25.5209 16.5C25.5209 17.4194 25.8367 18.311 26.4154 19.0254C26.9941 19.74 27.8006 20.2341 28.7 20.425C28.9261 20.4688 29.1299 20.5901 29.2759 20.7681C29.422 20.9463 29.5013 21.1697 29.5 21.3999V24.5C29.5 24.7651 29.3947 25.0195 29.2071 25.207C29.0196 25.3945 28.7652 25.5 28.5 25.5H12.5V7.5Z" fill="black" fill-opacity="0.1"/>
<path d="M11.5 7.5V25.5C11.5 26.0523 11.9477 26.5 12.5 26.5C13.0523 26.5 13.5 26.0523 13.5 25.5V7.5C13.5 6.94772 13.0523 6.5 12.5 6.5C11.9477 6.5 11.5 6.94772 11.5 7.5Z" fill="#1C1C1C"/>
<path fill-rule="evenodd" clip-rule="evenodd" d="M2.50001 24.5V21.4C2.50001 21.4 2.49606 20.6883 2.95101 20.1338C2.95101 20.1338 3.40596 19.5794 4.11015 19.4432C4.11015 19.4432 5.13601 19.2252 5.80757 18.3961C5.80757 18.3961 6.47912 17.567 6.47912 16.5C6.47912 16.5 6.47912 15.433 5.80757 14.6039C5.80757 14.6039 5.13601 13.7748 4.09231 13.5532C4.09231 13.5532 3.40596 13.4206 2.95101 12.8662C2.95101 12.8662 2.49606 12.3117 2.50003 11.5945L2.50001 8.5C2.50001 8.5 2.50001 7.67157 3.0858 7.08579C3.0858 7.08579 3.67158 6.5 4.50001 6.5H28.5C28.5 6.5 29.3284 6.5 29.9142 7.08579C29.9142 7.08579 30.5 7.67157 30.5 8.5V11.6C30.5 11.6 30.504 12.3117 30.049 12.8662C30.049 12.8662 29.5941 13.4206 28.8899 13.5568C28.8899 13.5568 27.864 13.7748 27.1925 14.6039C27.1925 14.6039 26.5209 15.433 26.5209 16.5C26.5209 16.5 26.5209 17.567 27.1925 18.3961C27.1925 18.3961 27.864 19.2252 28.9077 19.4468C28.9077 19.4468 29.5941 19.5794 30.049 20.1338C30.049 20.1338 30.504 20.6883 30.5 21.4055L30.5 24.5C30.5 24.5 30.5 25.3284 29.9142 25.9142C29.9142 25.9142 29.3284 26.5 28.5 26.5H4.50001C4.50001 26.5 3.67158 26.5 3.0858 25.9142C3.0858 25.9142 2.50001 25.3284 2.50001 24.5ZM4.50001 24.5H28.5L28.5 21.4044C28.5 21.4044 28.4973 21.4042 28.4923 21.4032C28.4923 21.4032 26.7557 21.0345 25.6383 19.6549C25.6383 19.6549 24.5209 18.2753 24.5209 16.5C24.5209 16.5 24.5209 14.7247 25.6383 13.3451C25.6383 13.3451 26.7525 11.9695 28.5 11.5954V8.5H4.50001L4.5 11.5956C4.5 11.5956 4.50273 11.5958 4.50771 11.5968C4.50771 11.5968 6.24432 11.9655 7.36172 13.3451C7.36172 13.3451 8.47913 14.7247 8.47913 16.5C8.47913 16.5 8.47913 18.2753 7.36172 19.6549C7.36172 19.6549 6.24755 21.0305 4.50001 21.4046V24.5Z" fill="#1C1C1C"/>
</svg>
