<svg width="33" height="33" viewBox="0 0 33 33" fill="none" xmlns="http://www.w3.org/2000/svg">
<path d="M25.5 7.5V26.5C25.5 26.7651 25.3945 27.0195 25.207 27.207C25.0195 27.3945 24.7651 27.5 24.5 27.5H8.5C8.23486 27.5 7.98047 27.3945 7.79297 27.207C7.60547 27.0195 7.5 26.7651 7.5 26.5V7.5H25.5Z" fill="black" fill-opacity="0.1"/>
<path d="M27.5 6.5H5.5C4.94772 6.5 4.5 6.94772 4.5 7.5C4.5 8.05228 4.94772 8.5 5.5 8.5H27.5C28.0523 8.5 28.5 8.05228 28.5 7.5C28.5 6.94772 28.0523 6.5 27.5 6.5Z" fill="#1C1C1C"/>
<path d="M12.5 13.5V21.5C12.5 22.0523 12.9477 22.5 13.5 22.5C14.0523 22.5 14.5 22.0523 14.5 21.5V13.5C14.5 12.9477 14.0523 12.5 13.5 12.5C12.9477 12.5 12.5 12.9477 12.5 13.5Z" fill="#1C1C1C"/>
<path d="M18.5 13.5V21.5C18.5 22.0523 18.9477 22.5 19.5 22.5C20.0523 22.5 20.5 22.0523 20.5 21.5V13.5C20.5 12.9477 20.0523 12.5 19.5 12.5C18.9477 12.5 18.5 12.9477 18.5 13.5Z" fill="#1C1C1C"/>
<path d="M8.5 26.5V7.5C8.5 6.94772 8.05228 6.5 7.5 6.5C6.94772 6.5 6.5 6.94772 6.5 7.5V26.5C6.5 27.3284 7.08579 27.9142 7.08579 27.9142C7.67157 28.5 8.5 28.5 8.5 28.5H24.5C25.3284 28.5 25.9142 27.9142 25.9142 27.9142C26.5 27.3284 26.5 26.5 26.5 26.5V7.5C26.5 6.94772 26.0523 6.5 25.5 6.5C24.9477 6.5 24.5 6.94772 24.5 7.5V26.5H8.5Z" fill="#1C1C1C"/>
<path d="M11.3787 3.37868C10.5 4.25736 10.5 5.5 10.5 5.5V7.5C10.5 8.05228 10.9477 8.5 11.5 8.5C12.0523 8.5 12.5 8.05228 12.5 7.5V5.5C12.5 5.08579 12.7929 4.79289 12.7929 4.79289C13.0858 4.5 13.5 4.5 13.5 4.5H19.5C19.9142 4.5 20.2071 4.79289 20.2071 4.79289C20.5 5.08579 20.5 5.5 20.5 5.5V7.5C20.5 8.05228 20.9477 8.5 21.5 8.5C22.0523 8.5 22.5 8.05228 22.5 7.5V5.5C22.5 4.25736 21.6213 3.37868 21.6213 3.37868C20.7426 2.5 19.5 2.5 19.5 2.5H13.5C12.2574 2.5 11.3787 3.37868 11.3787 3.37868Z" fill="#1C1C1C"/>
</svg>
