<svg width="33" height="33" viewBox="0 0 33 33" fill="none" xmlns="http://www.w3.org/2000/svg">
<path d="M15.5 13.5C15.5 16.2615 13.2615 18.5 10.5 18.5C7.73853 18.5 5.5 16.2615 5.5 13.5C5.5 10.7385 7.73853 8.5 10.5 8.5C13.2615 8.5 15.5 10.7385 15.5 13.5Z" fill="black" fill-opacity="0.1"/>
<path fill-rule="evenodd" clip-rule="evenodd" d="M10.5 7.5C10.5 7.5 12.9853 7.5 14.7426 9.25736C14.7426 9.25736 16.5 11.0147 16.5 13.5C16.5 13.5 16.5 15.9853 14.7426 17.7426C14.7426 17.7426 12.9853 19.5 10.5 19.5C10.5 19.5 8.01472 19.5 6.25736 17.7426C6.25736 17.7426 4.5 15.9853 4.5 13.5C4.5 13.5 4.5 11.0147 6.25736 9.25736C6.25736 9.25736 8.01472 7.5 10.5 7.5ZM10.5 9.5C10.5 9.5 8.84315 9.5 7.67157 10.6716C7.67157 10.6716 6.5 11.8431 6.5 13.5C6.5 13.5 6.5 15.1569 7.67157 16.3284C7.67157 16.3284 8.84315 17.5 10.5 17.5C10.5 17.5 12.1569 17.5 13.3284 16.3284C13.3284 16.3284 14.5 15.1569 14.5 13.5C14.5 13.5 14.5 11.8431 13.3284 10.6716C13.3284 10.6716 12.1569 9.5 10.5 9.5Z" fill="#1C1C1C"/>
<path d="M19.5 11.5H31.5C32.0523 11.5 32.5 11.0523 32.5 10.5C32.5 9.94772 32.0523 9.5 31.5 9.5H19.5C18.9477 9.5 18.5 9.94772 18.5 10.5C18.5 11.0523 18.9477 11.5 19.5 11.5Z" fill="#1C1C1C"/>
<path d="M19.5 17.5H31.5C32.0523 17.5 32.5 17.0523 32.5 16.5C32.5 15.9477 32.0523 15.5 31.5 15.5H19.5C18.9477 15.5 18.5 15.9477 18.5 16.5C18.5 17.0523 18.9477 17.5 19.5 17.5Z" fill="#1C1C1C"/>
<path d="M22.5 23.5H31.5C32.0523 23.5 32.5 23.0523 32.5 22.5C32.5 21.9477 32.0523 21.5 31.5 21.5H22.5C21.9477 21.5 21.5 21.9477 21.5 22.5C21.5 23.0523 21.9477 23.5 22.5 23.5Z" fill="#1C1C1C"/>
<path d="M14.7922 20.9547C16.6865 22.425 17.2812 24.748 17.2812 24.748C17.3945 25.1905 17.7932 25.5 18.25 25.5L18.2701 25.4998C18.347 25.4983 18.4235 25.4878 18.498 25.4688C18.9405 25.3555 19.25 24.9568 19.25 24.5L19.2498 24.4799C19.2483 24.403 19.2378 24.3265 19.2188 24.252C18.454 21.2652 16.0186 19.3748 16.0186 19.3748C13.5831 17.4843 10.5 17.4843 10.5 17.4843C7.41692 17.4843 4.98145 19.3748 4.98145 19.3748C2.54597 21.2652 1.78125 24.252 1.78125 24.252C1.7605 24.333 1.75 24.4163 1.75 24.5C1.75 24.5142 1.7503 24.5284 1.75091 24.5427C1.75794 24.7074 1.80559 24.8678 1.8896 25.0096C2.02476 25.2378 2.24503 25.403 2.50196 25.4688C2.58301 25.4895 2.66634 25.5 2.75 25.5C2.76422 25.5 2.77845 25.4997 2.79266 25.4991C2.95736 25.4921 3.11778 25.4444 3.25962 25.3604C3.48781 25.2252 3.65297 25.005 3.71875 24.748C4.31354 22.425 6.20779 20.9547 6.20779 20.9547C8.10205 19.4843 10.5 19.4843 10.5 19.4843C12.8979 19.4843 14.7922 20.9547 14.7922 20.9547Z" fill="#1C1C1C"/>
</svg>
