<svg width="33" height="33" viewBox="0 0 33 33" fill="none" xmlns="http://www.w3.org/2000/svg">
<path d="M18 14C18 17.5898 15.0898 20.5 11.5 20.5C7.91016 20.5 5 17.5898 5 14C5 10.4102 7.91016 7.5 11.5 7.5C15.0898 7.5 18 10.4102 18 14Z" fill="black" fill-opacity="0.1"/>
<path fill-rule="evenodd" clip-rule="evenodd" d="M11.5 6.5C11.5 6.5 14.6066 6.5 16.8033 8.6967C16.8033 8.6967 19 10.8934 19 14C19 14 19 17.1066 16.8033 19.3033C16.8033 19.3033 14.6066 21.5 11.5 21.5C11.5 21.5 8.3934 21.5 6.1967 19.3033C6.1967 19.3033 4 17.1066 4 14C4 14 4 10.8934 6.1967 8.6967C6.1967 8.6967 8.3934 6.5 11.5 6.5ZM11.5 8.5C11.5 8.5 9.22182 8.5 7.61091 10.1109C7.61091 10.1109 6 11.7218 6 14C6 14 6 16.2782 7.61091 17.8891C7.61091 17.8891 9.22182 19.5 11.5 19.5C11.5 19.5 13.7782 19.5 15.3891 17.8891C15.3891 17.8891 17 16.2782 17 14C17 14 17 11.7218 15.3891 10.1109C15.3891 10.1109 13.7782 8.5 11.5 8.5Z" fill="#1C1C1C"/>
<path d="M25.5764 17.8891C23.9655 19.5 21.6873 19.5 21.6873 19.5C21.135 19.5 20.6873 19.9477 20.6873 20.5C20.6873 21.0523 21.135 21.5 21.6873 21.5C24.7939 21.5 26.9906 19.3033 26.9906 19.3033C29.1873 17.1066 29.1873 14 29.1873 14C29.1873 10.8934 26.9906 8.6967 26.9906 8.6967C24.7939 6.5 21.6873 6.5 21.6873 6.5C20.656 6.50314 19.6636 6.77221 19.6636 6.77221L19.663 6.77237C19.2273 6.89055 18.9248 7.28603 18.9248 7.7375L18.9249 7.74778C18.9257 7.83274 18.9374 7.91725 18.9597 7.99926C19.0778 8.43499 19.4733 8.7375 19.9248 8.7375L19.9351 8.73745C20.02 8.73657 20.1046 8.72488 20.1866 8.70263L20.1868 8.70256C20.9253 8.50232 21.6873 8.5 21.6873 8.5C23.9655 8.5 25.5764 10.1109 25.5764 10.1109C27.1873 11.7218 27.1873 14 27.1873 14C27.1873 16.2782 25.5764 17.8891 25.5764 17.8891Z" fill="#1C1C1C"/>
<path d="M16.11 22.6255C18.2775 23.7515 19.6818 25.7499 19.6818 25.7499C19.8691 26.0164 20.1743 26.175 20.5 26.175C20.5112 26.175 20.5224 26.1748 20.5335 26.1744C20.7278 26.1679 20.9159 26.1049 21.075 25.9932C21.292 25.8407 21.4395 25.6082 21.4851 25.347C21.495 25.2902 21.5 25.2326 21.5 25.175L21.4998 25.1534C21.4955 24.955 21.4323 24.7624 21.3182 24.6C19.633 22.2019 17.032 20.8507 17.032 20.8507C14.431 19.4995 11.5 19.4995 11.5 19.4995C8.56899 19.4995 5.96801 20.8507 5.96801 20.8507C3.36717 22.2019 1.682 24.5998 1.682 24.5998L1.68182 24.6C1.56349 24.7684 1.5 24.9692 1.5 25.175C1.5 25.1981 1.5008 25.2212 1.50241 25.2443C1.52329 25.5448 1.67855 25.82 1.92504 25.9932C2.09342 26.1115 2.2942 26.175 2.5 26.175L2.50299 26.175C2.55964 26.1748 2.61618 26.1698 2.67198 26.1601C2.93325 26.1145 3.16569 25.9669 3.31818 25.7499C4.72252 23.7515 6.89001 22.6255 6.89001 22.6255C9.05749 21.4995 11.5 21.4995 11.5 21.4995C13.9425 21.4995 16.11 22.6255 16.11 22.6255Z" fill="#1C1C1C"/>
<path d="M29.8685 25.7488L29.869 25.7495C30.0562 26.0162 30.3616 26.175 30.6875 26.175C30.6985 26.175 30.7095 26.1748 30.7205 26.1745C30.9147 26.168 31.1029 26.1052 31.262 25.9935C31.5287 25.8063 31.6875 25.5009 31.6875 25.175C31.6875 25.164 31.6873 25.153 31.687 25.142C31.6805 24.9478 31.6177 24.7596 31.506 24.6005C31.5053 24.5995 31.5047 24.5986 31.5047 24.5986C29.8207 22.2004 27.2201 20.8496 27.2201 20.8496C24.6188 19.4983 21.6875 19.5 21.6875 19.5L21.6869 19.5C21.4217 19.5002 21.1674 19.6057 20.98 19.7933C20.7927 19.9808 20.6875 20.235 20.6875 20.5L20.6875 20.5006C20.6878 21.0527 21.1355 21.5 21.6875 21.5H21.6881C24.1306 21.4985 26.2982 22.6244 26.2982 22.6244C28.4653 23.7501 29.8685 25.7488 29.8685 25.7488Z" fill="#1C1C1C"/>
</svg>
